<svg xmlns="http://www.w3.org/2000/svg" xmlns:xlink="http://www.w3.org/1999/xlink" width="500" zoomAndPan="magnify" viewBox="0 0 375 374.999991" height="500" preserveAspectRatio="xMidYMid meet" version="1.0"><defs><g/><clipPath id="bd4578b1d8"><path d="M 19 43 L 349 43 L 349 298 L 19 298 Z M 19 43 " clip-rule="nonzero"/></clipPath><clipPath id="8c7b5d98ca"><path d="M -19.359375 223.339844 L 301.949219 -6.839844 L 394.109375 121.808594 L 72.796875 351.984375 Z M -19.359375 223.339844 " clip-rule="nonzero"/></clipPath><clipPath id="ba7bdab25c"><path d="M -19.359375 223.339844 L 301.949219 -6.839844 L 394.109375 121.808594 L 72.796875 351.984375 Z M -19.359375 223.339844 " clip-rule="nonzero"/></clipPath></defs><rect x="-37.5" width="450" fill="#ffffff" y="-37.499999" height="449.999989" fill-opacity="1"/><rect x="-37.5" width="450" fill="#000000" y="-37.499999" height="449.999989" fill-opacity="1"/><g fill="#ffffff" fill-opacity="1"><g transform="translate(129.456423, 203.562144)"><g><path d="M 49.375 -54.359375 C 47.875 -52.773438 46.171875 -51.609375 44.265625 -50.859375 C 52.410156 -49.703125 58.597656 -46.816406 62.828125 -42.203125 C 67.066406 -37.585938 69.1875 -31.957031 69.1875 -25.3125 C 69.1875 -17.25 65.945312 -10.722656 59.46875 -5.734375 C 52.988281 -0.742188 44.46875 1.75 33.90625 1.75 C 23.351562 1.75 15.082031 -0.847656 9.09375 -6.046875 C 3.113281 -11.242188 0.125 -18.578125 0.125 -28.046875 C 0.125 -28.546875 0.125 -29.046875 0.125 -29.546875 L 1.5 -29.796875 C 3.15625 -17.410156 8.304688 -9.390625 16.953125 -5.734375 L 16.953125 -78.296875 C 16.785156 -80.535156 15.929688 -82.382812 14.390625 -83.84375 C 12.859375 -85.300781 11.015625 -86.03125 8.859375 -86.03125 L 7.359375 -86.03125 L 7.359375 -87.265625 L 28.296875 -87.265625 C 36.109375 -87.265625 42.363281 -85.476562 47.0625 -81.90625 C 51.757812 -78.332031 54.109375 -73.65625 54.109375 -67.875 C 54.109375 -62.101562 52.53125 -57.597656 49.375 -54.359375 Z M 25.0625 -83.28125 L 25.0625 -3.484375 C 27.800781 -3.078125 30.957031 -2.875 34.53125 -2.875 C 42.507812 -2.875 48.722656 -5.007812 53.171875 -9.28125 C 57.617188 -13.5625 59.84375 -19.113281 59.84375 -25.9375 C 59.84375 -29.59375 59.15625 -32.832031 57.78125 -35.65625 C 56.414062 -38.476562 54.691406 -40.679688 52.609375 -42.265625 C 47.128906 -46.503906 39.398438 -48.625 29.421875 -48.625 C 29.335938 -48.625 29.296875 -48.625 29.296875 -48.625 L 29.171875 -49.75 C 29.253906 -49.75 29.296875 -49.75 29.296875 -49.75 C 33.535156 -49.75 37.171875 -51.140625 40.203125 -53.921875 C 43.234375 -56.703125 44.75 -61.003906 44.75 -66.828125 C 44.75 -77.796875 38.726562 -83.28125 26.6875 -83.28125 Z M 25.0625 -83.28125 "/></g></g></g><g clip-path="url(#bd4578b1d8)"><g clip-path="url(#8c7b5d98ca)"><g clip-path="url(#ba7bdab25c)"><path fill="#ffffff" d="M 315.199219 43.234375 C 302.117188 42.496094 288.8125 44.550781 276.191406 47.925781 C 263.214844 51.394531 250.589844 55.761719 238.191406 60.933594 C 225.898438 66.0625 213.964844 71.949219 202.195312 78.1875 C 190.402344 84.433594 178.933594 91.316406 167.703125 98.523438 C 156.519531 105.695312 145.539062 113.226562 134.9375 121.234375 C 124.25 129.308594 113.824219 137.695312 103.695312 146.464844 C 93.625 155.179688 83.914062 164.355469 74.6875 173.957031 C 68.242188 180.660156 62.097656 187.59375 56.097656 194.695312 C 55.6875 194.65625 55.28125 194.613281 54.871094 194.546875 C 52.019531 194.074219 49.382812 193.066406 47.054688 191.535156 C 46.828125 191.386719 46.605469 191.226562 46.382812 191.066406 C 44.902344 189.921875 43.476562 188.738281 42.09375 187.464844 C 40.441406 185.941406 39.289062 184.675781 37.882812 183.050781 C 37.734375 182.785156 37.464844 182.808594 37.285156 182.957031 C 37.074219 183.078125 36.957031 183.335938 37.160156 183.566406 C 38.214844 185.4375 39.027344 186.953125 39.96875 188.988281 C 40.824219 190.839844 41.492188 192.742188 42.136719 194.671875 C 42.148438 194.703125 42.160156 194.730469 42.175781 194.753906 C 42.195312 194.832031 42.214844 194.910156 42.234375 194.988281 C 42.460938 195.941406 42.527344 196.285156 42.691406 197.246094 C 42.800781 197.894531 42.820312 198.554688 42.867188 199.210938 C 42.894531 199.5625 42.863281 199.929688 42.859375 200.285156 C 42.855469 200.78125 42.863281 200.632812 42.820312 201.132812 C 42.578125 204.15625 41.90625 206.5625 40.457031 209.238281 C 40.429688 209.285156 40.214844 209.667969 40.332031 209.476562 C 40.25 209.609375 40.164062 209.746094 40.078125 209.882812 C 39.882812 210.195312 39.683594 210.507812 39.488281 210.820312 C 38.230469 212.417969 36.96875 214 35.585938 215.492188 C 34.0625 217.148438 32.792969 218.300781 31.167969 219.710938 C 31.132812 219.730469 31.105469 219.75 31.082031 219.769531 C 30.699219 220.046875 30.3125 220.320312 29.929688 220.59375 C 29.460938 220.929688 29.980469 221.652344 30.449219 221.320312 C 30.859375 221.023438 31.273438 220.730469 31.683594 220.433594 C 33.554688 219.375 35.070312 218.5625 37.109375 217.617188 C 38.003906 217.203125 38.914062 216.832031 39.832031 216.488281 C 33.136719 226.617188 26.8125 237.472656 23.195312 249.105469 C 19.644531 260.53125 17.347656 274.648438 25.253906 284.890625 C 33.109375 295.066406 46.886719 297.414062 59.003906 297.398438 C 71.910156 297.378906 84.765625 294.746094 97.148438 291.277344 C 109.722656 287.757812 121.921875 283.15625 133.933594 278.0625 C 145.859375 273 157.507812 267.179688 168.867188 260.964844 C 180.371094 254.667969 191.585938 247.921875 202.621094 240.835938 C 213.933594 233.566406 224.824219 225.714844 235.652344 217.746094 C 246.078125 210.074219 256.191406 201.777344 265.867188 193.179688 C 275.710938 184.433594 285.242188 175.558594 294.386719 166.007812 C 298.578125 161.628906 302.667969 157.171875 306.679688 152.628906 C 307.132812 152.472656 307.589844 152.320312 308.042969 152.164062 C 308.398438 152.074219 308.753906 151.980469 309.109375 151.886719 C 309.601562 151.761719 309.449219 151.792969 309.949219 151.71875 C 310.714844 151.605469 311.46875 151.515625 312.238281 151.445312 C 312.496094 151.421875 312.734375 151.410156 312.992188 151.414062 C 313.234375 151.417969 313.480469 151.417969 313.726562 151.421875 C 313.800781 151.421875 314.324219 151.445312 314.117188 151.425781 C 314.792969 151.488281 315.46875 151.542969 316.140625 151.640625 C 316.917969 151.757812 317.625 151.910156 318.382812 152.117188 C 318.4375 152.132812 318.855469 152.253906 318.644531 152.1875 C 318.796875 152.234375 318.949219 152.285156 319.101562 152.335938 C 319.453125 152.449219 319.832031 152.535156 320.171875 152.683594 C 320.78125 152.945312 321.398438 153.195312 321.984375 153.507812 C 322.832031 153.953125 323.101562 154.109375 323.910156 154.628906 C 324.175781 154.800781 324.433594 154.988281 324.683594 155.183594 C 326.101562 156.300781 327.503906 157.433594 328.832031 158.667969 C 329.636719 159.417969 330.410156 160.1875 331.183594 160.972656 C 331.242188 161.035156 331.640625 161.457031 331.480469 161.269531 C 331.625 161.4375 331.769531 161.605469 331.914062 161.773438 C 332.300781 162.21875 332.6875 162.664062 333.074219 163.109375 C 333.09375 163.140625 333.117188 163.167969 333.136719 163.195312 C 333.417969 163.589844 333.699219 163.980469 333.984375 164.375 C 334.316406 164.84375 335.042969 164.324219 334.707031 163.855469 C 334.40625 163.433594 334.101562 163.011719 333.800781 162.589844 C 333.53125 162.109375 333.257812 161.628906 332.988281 161.144531 C 332.863281 160.925781 332.742188 160.707031 332.617188 160.488281 C 332.613281 160.484375 332.613281 160.480469 332.613281 160.480469 C 332.558594 160.371094 332.5 160.265625 332.445312 160.15625 C 331.921875 159.160156 331.421875 158.167969 330.960938 157.140625 C 330.132812 155.292969 329.464844 153.402344 328.820312 151.484375 C 328.8125 151.457031 328.800781 151.433594 328.789062 151.410156 C 328.765625 151.332031 328.75 151.253906 328.730469 151.175781 C 328.515625 150.226562 328.449219 149.882812 328.273438 148.921875 C 328.15625 148.28125 328.152344 147.628906 328.113281 146.980469 C 328.089844 146.617188 328.109375 146.246094 328.105469 145.882812 C 328.101562 145.382812 328.097656 145.523438 328.136719 145.023438 C 328.382812 141.984375 329.113281 139.636719 330.507812 136.929688 C 330.535156 136.875 330.75 136.496094 330.625 136.683594 C 330.714844 136.550781 330.800781 136.417969 330.886719 136.285156 C 331.089844 135.980469 331.289062 135.671875 331.492188 135.367188 C 332.703125 133.78125 333.917969 132.214844 335.296875 130.769531 C 336.066406 129.960938 336.851562 129.179688 337.644531 128.398438 C 337.707031 128.335938 338.125 127.9375 337.945312 128.101562 C 338.109375 127.953125 338.273438 127.804688 338.4375 127.65625 C 338.878906 127.261719 339.320312 126.867188 339.761719 126.472656 C 340.027344 126.316406 340 126.035156 339.839844 125.851562 C 339.714844 125.652344 339.46875 125.546875 339.242188 125.746094 C 338.765625 126.027344 338.289062 126.304688 337.8125 126.582031 C 337.597656 126.707031 337.382812 126.832031 337.167969 126.957031 C 337.0625 127.011719 336.957031 127.066406 336.851562 127.117188 C 335.859375 127.617188 334.875 128.105469 333.859375 128.554688 C 332.003906 129.382812 330.097656 130.070312 328.183594 130.746094 C 327.820312 130.832031 327.460938 130.917969 327.101562 131.003906 C 326.609375 131.121094 326.757812 131.085938 326.261719 131.171875 C 325.488281 131.300781 324.75 131.386719 323.96875 131.445312 C 323.835938 131.453125 323.707031 131.460938 323.582031 131.46875 C 331.105469 121.03125 337.886719 110.003906 342.882812 98.125 C 347.746094 86.558594 351.0625 73.050781 346.398438 60.914062 C 341.644531 48.550781 327.289062 43.917969 315.199219 43.234375 Z M 343.707031 57.675781 C 347.109375 63.261719 348.070312 69.59375 347.671875 76.050781 C 346.871094 88.96875 341.066406 101.558594 334.722656 112.640625 C 331 119.144531 326.871094 125.414062 322.460938 131.5 C 321.695312 131.488281 320.957031 131.414062 320.085938 131.253906 C 319.328125 131.117188 318.589844 130.960938 317.839844 130.785156 C 317.785156 130.769531 317.371094 130.65625 317.578125 130.726562 C 317.429688 130.675781 317.28125 130.625 317.132812 130.574219 C 316.785156 130.453125 316.421875 130.351562 316.085938 130.207031 C 315.449219 129.9375 314.804688 129.6875 314.195312 129.359375 C 313.988281 129.246094 313.777344 129.132812 313.570312 129.019531 C 313.519531 128.992188 313.140625 128.777344 313.332031 128.894531 C 312.960938 128.664062 312.589844 128.429688 312.21875 128.199219 C 312.179688 128.175781 312.144531 128.152344 312.109375 128.128906 C 312.089844 128.105469 312.066406 128.082031 312.039062 128.0625 C 310.453125 126.851562 308.894531 125.628906 307.429688 124.273438 C 306.589844 123.5 305.800781 122.699219 305.011719 121.871094 C 304.9375 121.789062 304.863281 121.710938 304.785156 121.632812 C 304.664062 121.503906 304.75 121.59375 304.757812 121.601562 C 304.597656 121.421875 304.4375 121.242188 304.273438 121.0625 C 303.890625 120.632812 303.507812 120.203125 303.125 119.773438 C 302.96875 119.507812 302.6875 119.535156 302.507812 119.695312 C 302.304688 119.820312 302.199219 120.066406 302.398438 120.292969 C 302.667969 120.753906 302.941406 121.21875 303.210938 121.679688 C 303.347656 121.910156 303.484375 122.144531 303.617188 122.375 C 303.625 122.382812 303.628906 122.390625 303.632812 122.398438 C 303.671875 122.476562 303.710938 122.554688 303.75 122.632812 C 304.242188 123.613281 304.730469 124.585938 305.175781 125.585938 C 305.929688 127.289062 306.574219 129.027344 307.199219 130.777344 C 307.304688 131.085938 307.402344 131.394531 307.484375 131.710938 C 307.730469 132.664062 307.796875 132.992188 307.941406 133.964844 C 308.035156 134.609375 308.082031 135.261719 308.140625 135.914062 C 308.175781 136.277344 308.132812 136.660156 308.125 137.023438 C 308.121094 137.527344 308.125 137.382812 308.085938 137.875 C 307.980469 139.296875 307.710938 140.652344 307.382812 142.039062 C 307.4375 141.824219 307.3125 142.238281 307.292969 142.292969 C 307.214844 142.519531 307.132812 142.75 307.054688 142.976562 C 306.957031 143.25 306.859375 143.515625 306.746094 143.785156 C 306.441406 144.503906 306.121094 145.179688 305.75 145.867188 C 305.675781 146.003906 305.601562 146.140625 305.527344 146.277344 C 305.632812 146.078125 305.410156 146.460938 305.378906 146.511719 C 305.164062 146.855469 304.945312 147.203125 304.730469 147.546875 C 303.464844 149.15625 302.195312 150.757812 300.800781 152.253906 C 300.078125 153.03125 299.335938 153.777344 298.578125 154.519531 C 298.515625 154.578125 298.09375 154.976562 298.277344 154.816406 C 298.113281 154.960938 297.945312 155.105469 297.777344 155.25 C 297.332031 155.636719 296.882812 156.027344 296.4375 156.414062 C 296.40625 156.429688 296.378906 156.453125 296.351562 156.472656 C 295.96875 156.75 295.585938 157.023438 295.203125 157.296875 C 294.734375 157.632812 295.253906 158.359375 295.722656 158.023438 C 296.132812 157.726562 296.546875 157.433594 296.957031 157.136719 C 297.4375 156.867188 297.921875 156.59375 298.402344 156.324219 C 298.617188 156.203125 298.828125 156.082031 299.042969 155.964844 C 299.046875 155.964844 299.046875 155.960938 299.046875 155.960938 C 299.15625 155.90625 299.265625 155.851562 299.371094 155.796875 C 300.347656 155.308594 301.320312 154.820312 302.308594 154.359375 C 303.167969 153.957031 304.042969 153.601562 304.925781 153.265625 C 296.582031 162.648438 287.867188 171.679688 278.730469 180.292969 C 269.46875 189.027344 259.53125 197.800781 249.386719 205.882812 C 238.914062 214.226562 228.25 222.277344 217.265625 229.9375 C 206.339844 237.558594 195.128906 244.804688 183.644531 251.554688 C 172.261719 258.242188 160.894531 264.425781 149.023438 270.1875 C 137.320312 275.867188 125.3125 280.847656 113.09375 285.308594 C 100.921875 289.75 88.25 293.210938 75.46875 295.132812 C 63.097656 296.992188 49.488281 297.796875 37.660156 292.980469 C 32.195312 290.757812 26.574219 286.824219 23.992188 281.3125 C 21.300781 275.570312 20.242188 269.328125 21.03125 263.003906 C 22.636719 250.117188 27.917969 238.242188 34.324219 227.058594 C 36.46875 223.3125 38.808594 219.617188 41.230469 215.980469 C 41.75 215.800781 42.273438 215.621094 42.796875 215.445312 C 43.152344 215.355469 43.507812 215.261719 43.863281 215.167969 C 44.351562 215.042969 44.203125 215.074219 44.703125 215 C 45.460938 214.886719 46.207031 214.804688 46.96875 214.742188 C 47.222656 214.71875 47.460938 214.710938 47.710938 214.714844 C 47.957031 214.71875 48.199219 214.722656 48.445312 214.726562 C 48.523438 214.726562 49.046875 214.742188 48.835938 214.726562 C 49.523438 214.78125 50.207031 214.816406 50.882812 214.929688 C 51.648438 215.054688 52.378906 215.214844 53.128906 215.402344 C 53.1875 215.417969 53.605469 215.539062 53.398438 215.464844 C 53.546875 215.519531 53.695312 215.570312 53.84375 215.621094 C 54.191406 215.742188 54.550781 215.847656 54.890625 215.984375 C 55.527344 216.246094 56.164062 216.480469 56.765625 216.8125 C 57.589844 217.273438 57.902344 217.453125 58.738281 217.96875 C 58.777344 217.992188 58.816406 218.019531 58.851562 218.042969 C 58.871094 218.0625 58.890625 218.082031 58.914062 218.101562 C 60.523438 219.328125 62.105469 220.558594 63.570312 221.957031 C 64.363281 222.71875 65.136719 223.492188 65.90625 224.277344 C 65.964844 224.335938 66.367188 224.757812 66.203125 224.574219 C 66.351562 224.738281 66.496094 224.902344 66.644531 225.066406 C 67.039062 225.507812 67.433594 225.949219 67.828125 226.390625 C 68.132812 226.8125 68.433594 227.234375 68.738281 227.65625 C 69.070312 228.125 69.796875 227.605469 69.460938 227.136719 C 69.179688 226.742188 68.894531 226.351562 68.613281 225.957031 C 68.597656 225.925781 68.578125 225.898438 68.554688 225.871094 C 68.273438 225.394531 67.996094 224.917969 67.71875 224.441406 C 67.59375 224.226562 67.46875 224.011719 67.34375 223.796875 C 67.339844 223.789062 67.332031 223.777344 67.324219 223.761719 C 67.261719 223.636719 67.199219 223.515625 67.140625 223.390625 C 66.644531 222.40625 66.164062 221.429688 65.714844 220.421875 C 64.949219 218.71875 64.296875 217 63.695312 215.238281 C 63.613281 214.980469 63.539062 214.722656 63.472656 214.464844 C 63.238281 213.53125 63.179688 213.226562 63.03125 212.28125 C 62.925781 211.621094 62.886719 210.960938 62.832031 210.296875 C 62.808594 209.972656 62.828125 209.632812 62.828125 209.308594 C 62.824219 209.125 62.824219 208.941406 62.824219 208.761719 C 62.832031 208.652344 62.839844 208.546875 62.847656 208.441406 C 63.089844 205.390625 63.8125 203.019531 65.207031 200.3125 C 65.28125 200.171875 65.351562 200.03125 65.425781 199.890625 C 65.320312 200.089844 65.535156 199.71875 65.570312 199.667969 C 65.78125 199.335938 65.996094 199.003906 66.210938 198.671875 C 67.4375 197.0625 68.671875 195.476562 70.074219 194.015625 C 70.835938 193.222656 71.609375 192.449219 72.394531 191.675781 C 72.457031 191.617188 72.875 191.21875 72.695312 191.378906 C 72.859375 191.234375 73.023438 191.085938 73.1875 190.9375 C 73.628906 190.542969 74.070312 190.148438 74.511719 189.753906 C 74.777344 189.597656 74.75 189.316406 74.589844 189.136719 C 74.464844 188.933594 74.21875 188.828125 73.992188 189.027344 C 73.515625 189.308594 73.039062 189.585938 72.5625 189.863281 C 72.347656 189.988281 72.132812 190.113281 71.917969 190.242188 C 71.8125 190.292969 71.707031 190.347656 71.601562 190.402344 C 70.621094 190.894531 69.652344 191.375 68.652344 191.824219 C 66.769531 192.667969 64.84375 193.363281 62.902344 194.050781 C 62.546875 194.128906 62.195312 194.210938 61.839844 194.292969 C 61.351562 194.402344 61.503906 194.371094 61.011719 194.453125 C 60.238281 194.585938 59.5 194.667969 58.71875 194.726562 C 58.464844 194.746094 58.21875 194.753906 57.964844 194.757812 C 57.726562 194.757812 57.484375 194.757812 57.246094 194.761719 C 57.238281 194.761719 57.222656 194.761719 57.207031 194.761719 C 65.742188 184.679688 74.636719 174.972656 84.097656 165.742188 C 93.792969 156.277344 103.890625 147.148438 114.445312 138.511719 C 124.703125 130.109375 135.183594 122.027344 145.960938 114.304688 C 156.585938 106.695312 167.511719 99.445312 178.695312 92.683594 C 190.34375 85.640625 202.039062 79.136719 214.132812 72.996094 C 226.226562 66.851562 238.691406 61.390625 251.414062 56.679688 C 263.84375 52.078125 276.527344 48.347656 289.539062 45.925781 C 295.992188 44.726562 302.546875 44.105469 309.101562 43.972656 C 315.625 43.839844 322.464844 44.492188 328.652344 46.648438 C 334.632812 48.726562 340.335938 52.148438 343.707031 57.675781 Z M 343.707031 57.675781 " fill-opacity="1" fill-rule="nonzero"/></g></g></g><g fill="#ffffff" fill-opacity="1"><g transform="translate(158.425379, 203.562144)"><g><path d="M -7.234375 -62.453125 C -9.804688 -65.535156 -11.09375 -68.59375 -11.09375 -71.625 C -11.09375 -74.65625 -10.382812 -77.269531 -8.96875 -79.46875 C -7.5625 -81.675781 -5.273438 -83.546875 -2.109375 -85.078125 C 1.046875 -86.617188 4.617188 -87.390625 8.609375 -87.390625 L 59.71875 -87.390625 C 62.289062 -87.390625 65.132812 -87.640625 68.25 -88.140625 C 71.375 -88.640625 73.554688 -89.140625 74.796875 -89.640625 L 74.796875 -73.9375 L 73.5625 -74.0625 L 73.5625 -76.171875 C 73.5625 -78.171875 72.851562 -79.894531 71.4375 -81.34375 C 70.019531 -82.800781 68.359375 -83.570312 66.453125 -83.65625 L 42.765625 -83.65625 L 42.765625 -8.96875 C 42.847656 -5.976562 44.175781 -3.738281 46.75 -2.25 C 48 -1.582031 49.328125 -1.25 50.734375 -1.25 L 52.359375 -1.25 L 52.359375 0 L 25.0625 0 L 25.0625 -1.25 L 26.6875 -1.25 C 28.84375 -1.25 30.6875 -1.992188 32.21875 -3.484375 C 33.757812 -4.984375 34.570312 -6.773438 34.65625 -8.859375 L 34.65625 -83.65625 L 8.609375 -83.65625 C 1.953125 -83.65625 -2.867188 -81.535156 -5.859375 -77.296875 C -7.441406 -75.140625 -8.234375 -72.875 -8.234375 -70.5 C -8.234375 -68.132812 -7.566406 -65.660156 -6.234375 -63.078125 Z M -7.234375 -62.453125 "/></g></g></g><g fill="#ffffff" fill-opacity="1"><g transform="translate(73.254587, 327.660028)"><g><path d="M 13.171875 0 L 2.59375 0 L 2.640625 -0.4375 L 3.15625 -0.4375 C 3.914062 -0.4375 4.5625 -0.695312 5.09375 -1.21875 C 5.625 -1.738281 5.90625 -2.375 5.9375 -3.125 L 5.9375 -27.203125 C 5.9375 -27.960938 5.660156 -28.597656 5.109375 -29.109375 C 4.566406 -29.628906 3.914062 -29.890625 3.15625 -29.890625 L 2.640625 -29.890625 L 2.59375 -30.328125 L 11.21875 -30.328125 C 14.195312 -30.328125 16.507812 -29.671875 18.15625 -28.359375 C 19.800781 -27.046875 20.625 -25.289062 20.625 -23.09375 C 20.625 -21.363281 20.160156 -19.925781 19.234375 -18.78125 C 18.304688 -17.644531 17.179688 -16.890625 15.859375 -16.515625 C 18.140625 -16.160156 19.941406 -15.21875 21.265625 -13.6875 C 22.597656 -12.15625 23.265625 -10.226562 23.265625 -7.90625 C 23.265625 -5.582031 22.375 -3.679688 20.59375 -2.203125 C 18.820312 -0.734375 16.347656 0 13.171875 0 Z M 8.75 -1.5625 L 13 -1.5625 C 13.03125 -1.5625 13.054688 -1.5625 13.078125 -1.5625 C 15.273438 -1.5625 16.976562 -2.160156 18.1875 -3.359375 C 19.40625 -4.554688 20.015625 -6.253906 20.015625 -8.453125 C 20.015625 -9.691406 19.804688 -10.78125 19.390625 -11.71875 C 18.972656 -12.65625 18.445312 -13.398438 17.8125 -13.953125 C 16.132812 -15.335938 13.617188 -16.03125 10.265625 -16.03125 C 10.265625 -16.03125 10.25 -16.03125 10.21875 -16.03125 L 10.21875 -16.421875 C 10.25 -16.421875 10.382812 -16.421875 10.625 -16.421875 C 10.875 -16.421875 11.226562 -16.445312 11.6875 -16.5 C 12.15625 -16.5625 12.675781 -16.664062 13.25 -16.8125 C 13.832031 -16.957031 14.351562 -17.1875 14.8125 -17.5 C 15.28125 -17.820312 15.71875 -18.195312 16.125 -18.625 C 16.957031 -19.582031 17.375 -21.003906 17.375 -22.890625 C 17.375 -24.785156 16.832031 -26.265625 15.75 -27.328125 C 14.664062 -28.398438 13.097656 -28.9375 11.046875 -28.9375 L 8.75 -28.9375 Z M 8.75 -1.5625 "/></g></g></g><g fill="#ffffff" fill-opacity="1"><g transform="translate(98.645767, 327.660028)"><g><path d="M 3.15625 -0.4375 C 3.914062 -0.4375 4.5625 -0.703125 5.09375 -1.234375 C 5.625 -1.765625 5.90625 -2.40625 5.9375 -3.15625 L 5.9375 -27.421875 C 5.851562 -28.117188 5.550781 -28.703125 5.03125 -29.171875 C 4.507812 -29.648438 3.882812 -29.890625 3.15625 -29.890625 L 2.640625 -29.890625 L 2.59375 -30.328125 L 15.296875 -30.328125 C 16.191406 -30.328125 17.164062 -30.410156 18.21875 -30.578125 C 19.269531 -30.753906 20.015625 -30.929688 20.453125 -31.109375 L 20.453125 -25.65625 L 20.015625 -25.65625 L 20.015625 -26.4375 C 20.015625 -27.125 19.773438 -27.710938 19.296875 -28.203125 C 18.828125 -28.691406 18.257812 -28.953125 17.59375 -28.984375 L 8.75 -28.984375 L 8.75 -15.59375 L 16.078125 -15.59375 C 16.648438 -15.625 17.140625 -15.84375 17.546875 -16.25 C 17.953125 -16.65625 18.15625 -17.160156 18.15625 -17.765625 L 18.15625 -18.375 L 18.59375 -18.375 L 18.59375 -11.53125 L 18.15625 -11.53125 L 18.15625 -12.171875 C 18.15625 -12.753906 17.957031 -13.242188 17.5625 -13.640625 C 17.175781 -14.046875 16.695312 -14.265625 16.125 -14.296875 L 8.75 -14.296875 L 8.75 -1.34375 L 14.953125 -1.34375 C 17.085938 -1.34375 18.71875 -1.816406 19.84375 -2.765625 C 20.96875 -3.722656 21.90625 -5.140625 22.65625 -7.015625 L 23.09375 -7.015625 L 20.578125 0 L 2.59375 0 L 2.59375 -0.4375 Z M 3.15625 -0.4375 "/></g></g></g><g fill="#ffffff" fill-opacity="1"><g transform="translate(123.646977, 327.660028)"><g><path d="M 2.640625 -1.78125 C 2.554688 -2.1875 2.515625 -2.960938 2.515625 -4.109375 C 2.515625 -5.265625 2.726562 -6.492188 3.15625 -7.796875 L 3.546875 -7.796875 C 3.523438 -7.484375 3.515625 -7.164062 3.515625 -6.84375 C 3.515625 -5.082031 4.046875 -3.613281 5.109375 -2.4375 C 6.179688 -1.269531 7.597656 -0.6875 9.359375 -0.6875 C 11.179688 -0.6875 12.675781 -1.234375 13.84375 -2.328125 C 15.007812 -3.429688 15.59375 -4.8125 15.59375 -6.46875 C 15.59375 -8.132812 15.03125 -9.488281 13.90625 -10.53125 L 5.59375 -18.234375 C 4.03125 -19.679688 3.25 -21.429688 3.25 -23.484375 C 3.25 -25.535156 3.929688 -27.289062 5.296875 -28.75 C 6.671875 -30.207031 8.53125 -30.9375 10.875 -30.9375 C 11.96875 -30.9375 13.207031 -30.789062 14.59375 -30.5 L 16.296875 -30.5 L 16.296875 -25.171875 L 15.90625 -25.171875 C 15.90625 -26.523438 15.429688 -27.609375 14.484375 -28.421875 C 13.546875 -29.234375 12.34375 -29.640625 10.875 -29.640625 C 9.40625 -29.640625 8.171875 -29.144531 7.171875 -28.15625 C 6.171875 -27.175781 5.671875 -25.945312 5.671875 -24.46875 C 5.671875 -23 6.25 -21.734375 7.40625 -20.671875 L 15.9375 -12.78125 C 17.382812 -11.445312 18.109375 -9.625 18.109375 -7.3125 C 18.109375 -5.007812 17.367188 -3.113281 15.890625 -1.625 C 14.421875 -0.132812 12.460938 0.609375 10.015625 0.609375 C 8.742188 0.609375 7.390625 0.410156 5.953125 0.015625 C 4.523438 -0.367188 3.421875 -0.96875 2.640625 -1.78125 Z M 2.640625 -1.78125 "/></g></g></g><g fill="#ffffff" fill-opacity="1"><g transform="translate(144.228569, 327.660028)"><g><path d="M 25.515625 -26.46875 C 25.515625 -27.164062 25.269531 -27.765625 24.78125 -28.265625 C 24.289062 -28.773438 23.710938 -29.046875 23.046875 -29.078125 L 14.8125 -29.078125 L 14.8125 -3.125 C 14.84375 -2.375 15.125 -1.738281 15.65625 -1.21875 C 16.195312 -0.695312 16.84375 -0.4375 17.59375 -0.4375 L 18.15625 -0.4375 L 18.15625 0 L 8.671875 0 L 8.671875 -0.4375 L 9.234375 -0.4375 C 9.984375 -0.4375 10.625 -0.695312 11.15625 -1.21875 C 11.6875 -1.738281 11.96875 -2.359375 12 -3.078125 L 12 -29.078125 L 3.765625 -29.078125 C 3.078125 -29.046875 2.492188 -28.773438 2.015625 -28.265625 C 1.535156 -27.765625 1.296875 -27.164062 1.296875 -26.46875 L 1.296875 -25.734375 L 0.859375 -25.6875 L 0.859375 -31.15625 C 1.296875 -30.976562 2.046875 -30.800781 3.109375 -30.625 C 4.179688 -30.457031 5.164062 -30.375 6.0625 -30.375 L 20.703125 -30.375 C 22.117188 -30.375 23.296875 -30.476562 24.234375 -30.6875 C 25.179688 -30.90625 25.753906 -31.0625 25.953125 -31.15625 L 25.953125 -25.6875 L 25.515625 -25.734375 Z M 25.515625 -26.46875 "/></g></g></g><g fill="#ffffff" fill-opacity="1"><g transform="translate(171.006291, 327.660028)"><g/></g></g><g fill="#ffffff" fill-opacity="1"><g transform="translate(181.838704, 327.660028)"><g><path d="M 25.515625 -26.46875 C 25.515625 -27.164062 25.269531 -27.765625 24.78125 -28.265625 C 24.289062 -28.773438 23.710938 -29.046875 23.046875 -29.078125 L 14.8125 -29.078125 L 14.8125 -3.125 C 14.84375 -2.375 15.125 -1.738281 15.65625 -1.21875 C 16.195312 -0.695312 16.84375 -0.4375 17.59375 -0.4375 L 18.15625 -0.4375 L 18.15625 0 L 8.671875 0 L 8.671875 -0.4375 L 9.234375 -0.4375 C 9.984375 -0.4375 10.625 -0.695312 11.15625 -1.21875 C 11.6875 -1.738281 11.96875 -2.359375 12 -3.078125 L 12 -29.078125 L 3.765625 -29.078125 C 3.078125 -29.046875 2.492188 -28.773438 2.015625 -28.265625 C 1.535156 -27.765625 1.296875 -27.164062 1.296875 -26.46875 L 1.296875 -25.734375 L 0.859375 -25.6875 L 0.859375 -31.15625 C 1.296875 -30.976562 2.046875 -30.800781 3.109375 -30.625 C 4.179688 -30.457031 5.164062 -30.375 6.0625 -30.375 L 20.703125 -30.375 C 22.117188 -30.375 23.296875 -30.476562 24.234375 -30.6875 C 25.179688 -30.90625 25.753906 -31.0625 25.953125 -31.15625 L 25.953125 -25.6875 L 25.515625 -25.734375 Z M 25.515625 -26.46875 "/></g></g></g><g fill="#ffffff" fill-opacity="1"><g transform="translate(208.616426, 327.660028)"><g><path d="M 3.15625 -0.4375 C 3.914062 -0.4375 4.5625 -0.703125 5.09375 -1.234375 C 5.625 -1.765625 5.90625 -2.40625 5.9375 -3.15625 L 5.9375 -27.203125 C 5.90625 -27.960938 5.625 -28.597656 5.09375 -29.109375 C 4.5625 -29.628906 3.914062 -29.890625 3.15625 -29.890625 L 2.59375 -29.890625 L 2.59375 -30.328125 L 12.09375 -30.328125 L 12.09375 -29.890625 L 11.53125 -29.890625 C 10.78125 -29.890625 10.132812 -29.628906 9.59375 -29.109375 C 9.0625 -28.597656 8.78125 -27.960938 8.75 -27.203125 L 8.75 -3.15625 C 8.75 -2.40625 9.023438 -1.765625 9.578125 -1.234375 C 10.128906 -0.703125 10.78125 -0.4375 11.53125 -0.4375 L 12.09375 -0.4375 L 12.09375 0 L 2.59375 0 L 2.59375 -0.4375 Z M 3.15625 -0.4375 "/></g></g></g><g fill="#ffffff" fill-opacity="1"><g transform="translate(223.261853, 327.660028)"><g><path d="M 18.0625 0.609375 C 13.5 0.578125 9.78125 -0.878906 6.90625 -3.765625 C 4.03125 -6.660156 2.59375 -10.46875 2.59375 -15.1875 C 2.59375 -19.90625 4.03125 -23.707031 6.90625 -26.59375 C 9.78125 -29.488281 13.585938 -30.9375 18.328125 -30.9375 C 22.203125 -30.9375 25.625 -29.953125 28.59375 -27.984375 L 29.46875 -21.875 L 29.078125 -21.875 C 28.441406 -24.363281 27.15625 -26.28125 25.21875 -27.625 C 23.28125 -28.96875 20.984375 -29.640625 18.328125 -29.640625 C 14.546875 -29.640625 11.519531 -28.320312 9.25 -25.6875 C 6.976562 -23.0625 5.84375 -19.582031 5.84375 -15.25 C 5.84375 -10.914062 6.960938 -7.425781 9.203125 -4.78125 C 11.441406 -2.144531 14.394531 -0.78125 18.0625 -0.6875 C 21.300781 -0.6875 24.003906 -1.570312 26.171875 -3.34375 C 28.515625 -5.25 29.929688 -8.351562 30.421875 -12.65625 L 30.765625 -12.65625 L 30.25 -5.84375 C 27.613281 -1.539062 23.550781 0.609375 18.0625 0.609375 Z M 18.0625 0.609375 "/></g></g></g><g fill="#ffffff" fill-opacity="1"><g transform="translate(256.192389, 327.660028)"><g><path d="M 11.53125 -0.4375 L 12.09375 -0.4375 L 12.09375 0 L 2.59375 0 L 2.59375 -0.4375 L 3.15625 -0.4375 C 3.914062 -0.4375 4.5625 -0.703125 5.09375 -1.234375 C 5.625 -1.765625 5.90625 -2.40625 5.9375 -3.15625 L 5.9375 -27.203125 C 5.90625 -27.960938 5.625 -28.597656 5.09375 -29.109375 C 4.5625 -29.628906 3.914062 -29.890625 3.15625 -29.890625 L 2.59375 -29.890625 L 2.59375 -30.328125 L 12.09375 -30.328125 L 12.09375 -29.890625 L 11.53125 -29.890625 C 10.78125 -29.890625 10.132812 -29.628906 9.59375 -29.109375 C 9.0625 -28.597656 8.78125 -27.960938 8.75 -27.203125 L 8.75 -3.15625 C 8.75 -2.40625 9.023438 -1.765625 9.578125 -1.234375 C 10.128906 -0.703125 10.78125 -0.4375 11.53125 -0.4375 Z M 28.9375 0 L 27.078125 0 C 24.128906 0 21.960938 -0.820312 20.578125 -2.46875 L 10.140625 -15.078125 L 20.359375 -27.90625 C 20.585938 -28.195312 20.703125 -28.457031 20.703125 -28.6875 C 20.703125 -28.914062 20.660156 -29.117188 20.578125 -29.296875 C 20.347656 -29.722656 19.929688 -29.9375 19.328125 -29.9375 L 18.890625 -29.9375 L 18.890625 -30.328125 L 28.03125 -30.328125 L 28.03125 -29.9375 L 27.859375 -29.9375 C 25.953125 -29.9375 24.394531 -29.257812 23.1875 -27.90625 L 13 -16.125 L 24.828125 -2.203125 C 25.984375 -1.054688 27.351562 -0.46875 28.9375 -0.4375 Z M 28.9375 0 "/></g></g></g><g fill="#ffffff" fill-opacity="1"><g transform="translate(284.659976, 327.660028)"><g><path d="M 3.15625 -0.4375 C 3.914062 -0.4375 4.5625 -0.703125 5.09375 -1.234375 C 5.625 -1.765625 5.90625 -2.40625 5.9375 -3.15625 L 5.9375 -27.421875 C 5.851562 -28.117188 5.550781 -28.703125 5.03125 -29.171875 C 4.507812 -29.648438 3.882812 -29.890625 3.15625 -29.890625 L 2.640625 -29.890625 L 2.59375 -30.328125 L 15.296875 -30.328125 C 16.191406 -30.328125 17.164062 -30.410156 18.21875 -30.578125 C 19.269531 -30.753906 20.015625 -30.929688 20.453125 -31.109375 L 20.453125 -25.65625 L 20.015625 -25.65625 L 20.015625 -26.4375 C 20.015625 -27.125 19.773438 -27.710938 19.296875 -28.203125 C 18.828125 -28.691406 18.257812 -28.953125 17.59375 -28.984375 L 8.75 -28.984375 L 8.75 -15.59375 L 16.078125 -15.59375 C 16.648438 -15.625 17.140625 -15.84375 17.546875 -16.25 C 17.953125 -16.65625 18.15625 -17.160156 18.15625 -17.765625 L 18.15625 -18.375 L 18.59375 -18.375 L 18.59375 -11.53125 L 18.15625 -11.53125 L 18.15625 -12.171875 C 18.15625 -12.753906 17.957031 -13.242188 17.5625 -13.640625 C 17.175781 -14.046875 16.695312 -14.265625 16.125 -14.296875 L 8.75 -14.296875 L 8.75 -1.34375 L 14.953125 -1.34375 C 17.085938 -1.34375 18.71875 -1.816406 19.84375 -2.765625 C 20.96875 -3.722656 21.90625 -5.140625 22.65625 -7.015625 L 23.09375 -7.015625 L 20.578125 0 L 2.59375 0 L 2.59375 -0.4375 Z M 3.15625 -0.4375 "/></g></g></g><g fill="#ffffff" fill-opacity="1"><g transform="translate(309.661201, 327.660028)"><g><path d="M 25.515625 -26.46875 C 25.515625 -27.164062 25.269531 -27.765625 24.78125 -28.265625 C 24.289062 -28.773438 23.710938 -29.046875 23.046875 -29.078125 L 14.8125 -29.078125 L 14.8125 -3.125 C 14.84375 -2.375 15.125 -1.738281 15.65625 -1.21875 C 16.195312 -0.695312 16.84375 -0.4375 17.59375 -0.4375 L 18.15625 -0.4375 L 18.15625 0 L 8.671875 0 L 8.671875 -0.4375 L 9.234375 -0.4375 C 9.984375 -0.4375 10.625 -0.695312 11.15625 -1.21875 C 11.6875 -1.738281 11.96875 -2.359375 12 -3.078125 L 12 -29.078125 L 3.765625 -29.078125 C 3.078125 -29.046875 2.492188 -28.773438 2.015625 -28.265625 C 1.535156 -27.765625 1.296875 -27.164062 1.296875 -26.46875 L 1.296875 -25.734375 L 0.859375 -25.6875 L 0.859375 -31.15625 C 1.296875 -30.976562 2.046875 -30.800781 3.109375 -30.625 C 4.179688 -30.457031 5.164062 -30.375 6.0625 -30.375 L 20.703125 -30.375 C 22.117188 -30.375 23.296875 -30.476562 24.234375 -30.6875 C 25.179688 -30.90625 25.753906 -31.0625 25.953125 -31.15625 L 25.953125 -25.6875 L 25.515625 -25.734375 Z M 25.515625 -26.46875 "/></g></g></g><g fill="#ffffff" fill-opacity="1"><g transform="translate(136.161208, 356.765341)"><g><path d="M 16.015625 -10.453125 L 15.890625 -10.453125 C 15.179688 -10.453125 14.695312 -10.101562 14.4375 -9.40625 L 11.875 -1.75 C 11.613281 -1.007812 11.476562 -0.351562 11.46875 0.21875 L 11.28125 0.21875 L 7.984375 -8.21875 L 5.6875 -1.75 C 5.445312 -1.019531 5.316406 -0.363281 5.296875 0.21875 L 5.140625 0.21875 L 1.421875 -9.484375 C 1.148438 -10.128906 0.675781 -10.453125 0 -10.453125 L -0.140625 -10.453125 L -0.140625 -10.625 L 3.515625 -10.625 L 3.515625 -10.453125 L 3.359375 -10.453125 C 3.148438 -10.453125 2.988281 -10.382812 2.875 -10.25 C 2.769531 -10.125 2.71875 -9.992188 2.71875 -9.859375 C 2.71875 -9.734375 2.734375 -9.613281 2.765625 -9.5 L 5.125 -2.28125 L 8.109375 -10.921875 L 8.296875 -10.890625 L 11.46875 -2.8125 L 13.453125 -9.390625 C 13.503906 -9.554688 13.53125 -9.703125 13.53125 -9.828125 C 13.53125 -9.960938 13.484375 -10.097656 13.390625 -10.234375 C 13.296875 -10.378906 13.140625 -10.453125 12.921875 -10.453125 L 12.78125 -10.453125 L 12.78125 -10.625 L 16.015625 -10.625 Z M 16.015625 -10.453125 "/></g></g></g><g fill="#ffffff" fill-opacity="1"><g transform="translate(152.082355, 356.765341)"><g><path d="M 1.21875 -0.171875 C 1.5 -0.171875 1.738281 -0.257812 1.9375 -0.4375 C 2.132812 -0.625 2.238281 -0.847656 2.25 -1.109375 L 2.25 -9.53125 C 2.25 -9.789062 2.144531 -10.007812 1.9375 -10.1875 C 1.738281 -10.363281 1.5 -10.453125 1.21875 -10.453125 L 0.96875 -10.453125 L 0.96875 -10.625 L 6.140625 -10.625 C 6.628906 -10.625 7.054688 -10.660156 7.421875 -10.734375 C 7.785156 -10.804688 8.023438 -10.867188 8.140625 -10.921875 L 8.140625 -8.890625 L 7.9375 -8.90625 L 7.9375 -9.171875 C 7.9375 -9.421875 7.851562 -9.632812 7.6875 -9.8125 C 7.519531 -9.988281 7.304688 -10.078125 7.046875 -10.078125 L 3.359375 -10.078125 L 3.359375 -5.578125 L 6.390625 -5.578125 C 6.628906 -5.578125 6.8125 -5.644531 6.9375 -5.78125 C 7.0625 -5.925781 7.125 -6.109375 7.125 -6.328125 L 7.125 -6.5625 L 7.3125 -6.5625 L 7.3125 -4.078125 L 7.125 -4.078125 L 7.125 -4.3125 C 7.125 -4.632812 7 -4.859375 6.75 -4.984375 C 6.65625 -5.015625 6.554688 -5.035156 6.453125 -5.046875 L 3.359375 -5.046875 L 3.359375 -0.546875 L 6.140625 -0.546875 C 6.691406 -0.546875 7.148438 -0.640625 7.515625 -0.828125 C 7.890625 -1.015625 8.175781 -1.238281 8.375 -1.5 C 8.570312 -1.757812 8.769531 -2.101562 8.96875 -2.53125 L 9.140625 -2.53125 L 8.171875 0 L 0.96875 0 L 0.96875 -0.171875 Z M 1.21875 -0.171875 "/></g></g></g><g fill="#ffffff" fill-opacity="1"><g transform="translate(161.751926, 356.765341)"><g><path d="M 8.015625 -9.15625 C 8.191406 -8.8125 8.28125 -8.394531 8.28125 -7.90625 C 8.28125 -7.425781 8.082031 -6.984375 7.6875 -6.578125 C 7.300781 -6.171875 6.847656 -5.90625 6.328125 -5.78125 C 7.191406 -5.6875 7.898438 -5.375 8.453125 -4.84375 C 9.015625 -4.3125 9.296875 -3.726562 9.296875 -3.09375 C 9.296875 -2.457031 9.175781 -1.9375 8.9375 -1.53125 C 8.695312 -1.132812 8.375 -0.832031 7.96875 -0.625 C 7.207031 -0.207031 6.34375 0 5.375 0 L 0.96875 0 L 0.96875 -0.171875 L 1.1875 -0.171875 C 1.476562 -0.171875 1.722656 -0.257812 1.921875 -0.4375 C 2.128906 -0.625 2.238281 -0.859375 2.25 -1.140625 L 2.25 -9.5 C 2.238281 -9.882812 2.0625 -10.160156 1.71875 -10.328125 C 1.5625 -10.410156 1.382812 -10.453125 1.1875 -10.453125 L 0.96875 -10.453125 L 0.96875 -10.625 L 4.59375 -10.625 C 6.351562 -10.625 7.492188 -10.132812 8.015625 -9.15625 Z M 8.046875 -2.984375 C 8.046875 -4.734375 6.671875 -5.609375 3.921875 -5.609375 L 3.921875 -5.796875 C 5.992188 -5.796875 7.03125 -6.519531 7.03125 -7.96875 C 7.03125 -9.382812 6.210938 -10.09375 4.578125 -10.09375 L 3.359375 -10.09375 L 3.359375 -0.53125 L 5.34375 -0.53125 C 6.15625 -0.53125 6.804688 -0.734375 7.296875 -1.140625 C 7.796875 -1.546875 8.046875 -2.160156 8.046875 -2.984375 Z M 8.046875 -2.984375 "/></g></g></g><g fill="#ffffff" fill-opacity="1"><g transform="translate(171.846527, 356.765341)"><g/></g></g><g fill="#ffffff" fill-opacity="1"><g transform="translate(176.273979, 356.765341)"><g><path d="M 8.015625 -9.15625 C 8.191406 -8.8125 8.28125 -8.394531 8.28125 -7.90625 C 8.28125 -7.425781 8.082031 -6.984375 7.6875 -6.578125 C 7.300781 -6.171875 6.847656 -5.90625 6.328125 -5.78125 C 7.191406 -5.6875 7.898438 -5.375 8.453125 -4.84375 C 9.015625 -4.3125 9.296875 -3.726562 9.296875 -3.09375 C 9.296875 -2.457031 9.175781 -1.9375 8.9375 -1.53125 C 8.695312 -1.132812 8.375 -0.832031 7.96875 -0.625 C 7.207031 -0.207031 6.34375 0 5.375 0 L 0.96875 0 L 0.96875 -0.171875 L 1.1875 -0.171875 C 1.476562 -0.171875 1.722656 -0.257812 1.921875 -0.4375 C 2.128906 -0.625 2.238281 -0.859375 2.25 -1.140625 L 2.25 -9.5 C 2.238281 -9.882812 2.0625 -10.160156 1.71875 -10.328125 C 1.5625 -10.410156 1.382812 -10.453125 1.1875 -10.453125 L 0.96875 -10.453125 L 0.96875 -10.625 L 4.59375 -10.625 C 6.351562 -10.625 7.492188 -10.132812 8.015625 -9.15625 Z M 8.046875 -2.984375 C 8.046875 -4.734375 6.671875 -5.609375 3.921875 -5.609375 L 3.921875 -5.796875 C 5.992188 -5.796875 7.03125 -6.519531 7.03125 -7.96875 C 7.03125 -9.382812 6.210938 -10.09375 4.578125 -10.09375 L 3.359375 -10.09375 L 3.359375 -0.53125 L 5.34375 -0.53125 C 6.15625 -0.53125 6.804688 -0.734375 7.296875 -1.140625 C 7.796875 -1.546875 8.046875 -2.160156 8.046875 -2.984375 Z M 8.046875 -2.984375 "/></g></g></g><g fill="#ffffff" fill-opacity="1"><g transform="translate(186.36858, 356.765341)"><g><path d="M 3.859375 -10.171875 C 4.773438 -10.640625 5.773438 -10.875 6.859375 -10.875 C 7.953125 -10.875 8.953125 -10.640625 9.859375 -10.171875 C 10.773438 -9.710938 11.5 -9.054688 12.03125 -8.203125 C 12.570312 -7.347656 12.84375 -6.382812 12.84375 -5.3125 C 12.84375 -4.238281 12.570312 -3.273438 12.03125 -2.421875 C 11.5 -1.578125 10.773438 -0.921875 9.859375 -0.453125 C 8.953125 0.015625 8.019531 0.25 7.0625 0.25 C 6.113281 0.25 5.269531 0.113281 4.53125 -0.15625 C 3.800781 -0.425781 3.164062 -0.800781 2.625 -1.28125 C 2.09375 -1.769531 1.671875 -2.363281 1.359375 -3.0625 C 1.046875 -3.757812 0.890625 -4.578125 0.890625 -5.515625 C 0.890625 -6.453125 1.15625 -7.347656 1.6875 -8.203125 C 2.226562 -9.054688 2.953125 -9.710938 3.859375 -10.171875 Z M 3.53125 -1.6875 C 4.425781 -0.75 5.535156 -0.28125 6.859375 -0.28125 C 8.179688 -0.28125 9.289062 -0.75 10.1875 -1.6875 C 11.082031 -2.625 11.53125 -3.832031 11.53125 -5.3125 C 11.53125 -6.789062 11.082031 -8 10.1875 -8.9375 C 9.289062 -9.875 8.179688 -10.34375 6.859375 -10.34375 C 5.535156 -10.34375 4.425781 -9.875 3.53125 -8.9375 C 2.644531 -8 2.203125 -6.789062 2.203125 -5.3125 C 2.203125 -3.832031 2.644531 -2.625 3.53125 -1.6875 Z M 3.53125 -1.6875 "/></g></g></g><g fill="#ffffff" fill-opacity="1"><g transform="translate(200.076001, 356.765341)"><g><path d="M 3.859375 -10.171875 C 4.773438 -10.640625 5.773438 -10.875 6.859375 -10.875 C 7.953125 -10.875 8.953125 -10.640625 9.859375 -10.171875 C 10.773438 -9.710938 11.5 -9.054688 12.03125 -8.203125 C 12.570312 -7.347656 12.84375 -6.382812 12.84375 -5.3125 C 12.84375 -4.238281 12.570312 -3.273438 12.03125 -2.421875 C 11.5 -1.578125 10.773438 -0.921875 9.859375 -0.453125 C 8.953125 0.015625 8.019531 0.25 7.0625 0.25 C 6.113281 0.25 5.269531 0.113281 4.53125 -0.15625 C 3.800781 -0.425781 3.164062 -0.800781 2.625 -1.28125 C 2.09375 -1.769531 1.671875 -2.363281 1.359375 -3.0625 C 1.046875 -3.757812 0.890625 -4.578125 0.890625 -5.515625 C 0.890625 -6.453125 1.15625 -7.347656 1.6875 -8.203125 C 2.226562 -9.054688 2.953125 -9.710938 3.859375 -10.171875 Z M 3.53125 -1.6875 C 4.425781 -0.75 5.535156 -0.28125 6.859375 -0.28125 C 8.179688 -0.28125 9.289062 -0.75 10.1875 -1.6875 C 11.082031 -2.625 11.53125 -3.832031 11.53125 -5.3125 C 11.53125 -6.789062 11.082031 -8 10.1875 -8.9375 C 9.289062 -9.875 8.179688 -10.34375 6.859375 -10.34375 C 5.535156 -10.34375 4.425781 -9.875 3.53125 -8.9375 C 2.644531 -8 2.203125 -6.789062 2.203125 -5.3125 C 2.203125 -3.832031 2.644531 -2.625 3.53125 -1.6875 Z M 3.53125 -1.6875 "/></g></g></g><g fill="#ffffff" fill-opacity="1"><g transform="translate(213.783422, 356.765341)"><g><path d="M 11.140625 0 L 10.484375 0 C 9.328125 0 8.460938 -0.335938 7.890625 -1.015625 L 3.984375 -5.28125 L 7.796875 -9.765625 C 7.921875 -9.929688 7.9375 -10.085938 7.84375 -10.234375 C 7.757812 -10.378906 7.613281 -10.453125 7.40625 -10.453125 L 7.25 -10.453125 L 7.25 -10.625 L 10.859375 -10.625 L 10.859375 -10.453125 L 10.796875 -10.453125 C 10.066406 -10.453125 9.492188 -10.238281 9.078125 -9.8125 L 5.203125 -5.6875 L 9.609375 -0.90625 C 9.816406 -0.644531 10.03125 -0.457031 10.25 -0.34375 C 10.476562 -0.238281 10.773438 -0.179688 11.140625 -0.171875 Z M 4.40625 -0.171875 L 4.609375 -0.171875 L 4.609375 0 L 0.96875 0 L 0.96875 -0.171875 L 1.1875 -0.171875 C 1.46875 -0.171875 1.707031 -0.265625 1.90625 -0.453125 C 2.113281 -0.648438 2.222656 -0.878906 2.234375 -1.140625 L 2.234375 -9.5 C 2.222656 -9.757812 2.113281 -9.984375 1.90625 -10.171875 C 1.707031 -10.359375 1.46875 -10.453125 1.1875 -10.453125 L 0.96875 -10.453125 L 0.96875 -10.625 L 4.609375 -10.625 L 4.609375 -10.453125 L 4.390625 -10.453125 C 4.015625 -10.453125 3.722656 -10.300781 3.515625 -10 C 3.410156 -9.851562 3.359375 -9.691406 3.359375 -9.515625 L 3.359375 -1.109375 C 3.359375 -0.847656 3.460938 -0.625 3.671875 -0.4375 C 3.878906 -0.257812 4.125 -0.171875 4.40625 -0.171875 Z M 4.40625 -0.171875 "/></g></g></g><g fill="#ffffff" fill-opacity="1"><g transform="translate(224.834365, 356.765341)"><g><path d="M 1.21875 -0.171875 C 1.539062 -0.171875 1.816406 -0.265625 2.046875 -0.453125 C 2.285156 -0.648438 2.40625 -0.878906 2.40625 -1.140625 L 2.40625 -9.5 C 2.40625 -9.757812 2.285156 -9.984375 2.046875 -10.171875 C 1.816406 -10.359375 1.535156 -10.453125 1.203125 -10.453125 L 0.96875 -10.453125 L 0.96875 -10.625 L 4.984375 -10.625 L 4.984375 -10.453125 L 4.75 -10.453125 C 4.425781 -10.453125 4.148438 -10.363281 3.921875 -10.1875 C 3.691406 -10.007812 3.566406 -9.789062 3.546875 -9.53125 L 3.546875 -1.109375 C 3.554688 -0.847656 3.675781 -0.625 3.90625 -0.4375 C 4.144531 -0.257812 4.425781 -0.171875 4.75 -0.171875 L 4.984375 -0.171875 L 5 0 L 0.96875 0 L 0.96875 -0.171875 Z M 1.21875 -0.171875 "/></g></g></g><g fill="#ffffff" fill-opacity="1"><g transform="translate(230.784866, 356.765341)"><g><path d="M 12.875 -10.453125 C 12.613281 -10.453125 12.390625 -10.363281 12.203125 -10.1875 C 12.015625 -10.019531 11.914062 -9.8125 11.90625 -9.5625 L 11.90625 -2.015625 C 11.90625 -1.335938 11.945312 -0.691406 12.03125 -0.078125 L 12.0625 0.25 L 11.90625 0.25 L 2.6875 -8.484375 L 2.6875 -1.09375 C 2.6875 -0.832031 2.78125 -0.613281 2.96875 -0.4375 C 3.164062 -0.257812 3.398438 -0.171875 3.671875 -0.171875 L 3.96875 -0.171875 L 3.96875 0 L 0.625 0 L 0.625 -0.171875 L 0.921875 -0.171875 C 1.191406 -0.171875 1.421875 -0.257812 1.609375 -0.4375 C 1.796875 -0.613281 1.890625 -0.832031 1.890625 -1.09375 L 1.890625 -8.6875 C 1.890625 -9.40625 1.847656 -10.046875 1.765625 -10.609375 L 1.734375 -10.890625 L 1.9375 -10.875 L 11.125 -2.21875 L 11.125 -9.5625 C 11.101562 -9.8125 11 -10.019531 10.8125 -10.1875 C 10.625 -10.363281 10.398438 -10.453125 10.140625 -10.453125 L 9.828125 -10.453125 L 9.828125 -10.625 L 13.1875 -10.625 L 13.1875 -10.453125 Z M 12.875 -10.453125 "/></g></g></g><g fill="#ffffff" fill-opacity="1"><g transform="translate(244.580831, 356.765341)"><g><path d="M 6.703125 0.25 C 4.941406 0.238281 3.53125 -0.265625 2.46875 -1.265625 C 1.414062 -2.265625 0.890625 -3.617188 0.890625 -5.328125 C 0.890625 -7.035156 1.414062 -8.382812 2.46875 -9.375 C 3.53125 -10.375 4.894531 -10.875 6.5625 -10.875 C 8.238281 -10.875 9.660156 -10.519531 10.828125 -9.8125 L 11.21875 -7.296875 L 11.0625 -7.296875 C 10.8125 -8.335938 10.328125 -9.101562 9.609375 -9.59375 C 8.898438 -10.09375 7.890625 -10.34375 6.578125 -10.34375 C 5.273438 -10.34375 4.210938 -9.890625 3.390625 -8.984375 C 2.566406 -8.085938 2.15625 -6.863281 2.15625 -5.3125 C 2.15625 -3.769531 2.566406 -2.546875 3.390625 -1.640625 C 4.222656 -0.734375 5.367188 -0.28125 6.828125 -0.28125 C 8.285156 -0.28125 9.539062 -0.796875 10.59375 -1.828125 L 10.609375 -4.1875 C 10.617188 -4.394531 10.550781 -4.5625 10.40625 -4.6875 C 10.257812 -4.8125 10.054688 -4.875 9.796875 -4.875 L 9.546875 -4.875 L 9.546875 -5.046875 L 12.796875 -5.046875 L 12.796875 -4.875 L 12.546875 -4.875 C 12.015625 -4.875 11.75 -4.632812 11.75 -4.15625 L 11.75 -2.03125 C 11.25 -1.414062 10.566406 -0.878906 9.703125 -0.421875 C 8.835938 0.0234375 7.835938 0.25 6.703125 0.25 Z M 6.703125 0.25 "/></g></g></g></svg>